<svg xmlns="http://www.w3.org/2000/svg" xmlns:xlink="http://www.w3.org/1999/xlink" width="128" height="128" viewBox="0 0 128 128" role="img" aria-label="EUR coin">
  <defs>
    <filter id="fShadow" x="-25%" y="-25%" width="150%" height="150%" color-interpolation-filters="sRGB">
      <feOffset dy="3"/>
      <feGaussianBlur stdDeviation="3" result="blur"/>
      <feColorMatrix in="blur" type="matrix" values="0 0 0 0 0
                                                     0 0 0 0 0
                                                     0 0 0 0 0
                                                     0 0 0 .28 0" result="shadow"/>
      <feMerge>
        <feMergeNode in="shadow"/>
        <feMergeNode in="SourceGraphic"/>
      </feMerge>
    </filter>

    <filter id="fInner" x="-25%" y="-25%" width="150%" height="150%" color-interpolation-filters="sRGB">
      <feOffset dx="0" dy="1"/>
      <feGaussianBlur stdDeviation="2" result="blur"/>
      <feComposite in="blur" in2="SourceAlpha" operator="arithmetic" k2="-1" k3="1" result="inner"/>
      <feColorMatrix in="inner" type="matrix" values="0 0 0 0 0
                                                     0 0 0 0 0
                                                     0 0 0 0 0
                                                     0 0 0 .16 0"/>
      <feComposite in2="SourceGraphic" operator="over"/>
    </filter>

    <radialGradient id="gEUBlue" cx="35%" cy="30%" r="85%">
      <stop offset="0%" stop-color="#1D4ED8"/>
      <stop offset="100%" stop-color="#0B2E83"/>
    </radialGradient>

    <clipPath id="clipCoin">
      <circle cx="64" cy="64" r="54"/>
    </clipPath>

    <linearGradient id="gHighlight" x1="0" y1="0" x2="0" y2="1">
      <stop offset="0%" stop-color="#FFFFFF" stop-opacity="0.42"/>
      <stop offset="60%" stop-color="#FFFFFF" stop-opacity="0"/>
    </linearGradient>

    <path id="euStar" d="M0,-4.3 L1.26,-1.3 L4.55,-1.3 L1.89,0.5 L2.9,3.7 L0,1.9 L-2.9,3.7 L-1.89,0.5 L-4.55,-1.3 L-1.26,-1.3 Z"/>
  </defs>

  <g filter="url(#fShadow)" clip-path="url(#clipCoin)">
    <rect x="10" y="10" width="108" height="108" fill="url(#gEUBlue)" filter="url(#fInner)"/>

    <g transform="translate(64 64)" fill="#FACC15" filter="url(#fInner)">
      <g>
        <use href="#euStar" xlink:href="#euStar" transform="rotate(0) translate(0 -24)"/>
        <use href="#euStar" xlink:href="#euStar" transform="rotate(30) translate(0 -24)"/>
        <use href="#euStar" xlink:href="#euStar" transform="rotate(60) translate(0 -24)"/>
        <use href="#euStar" xlink:href="#euStar" transform="rotate(90) translate(0 -24)"/>
        <use href="#euStar" xlink:href="#euStar" transform="rotate(120) translate(0 -24)"/>
        <use href="#euStar" xlink:href="#euStar" transform="rotate(150) translate(0 -24)"/>
        <use href="#euStar" xlink:href="#euStar" transform="rotate(180) translate(0 -24)"/>
        <use href="#euStar" xlink:href="#euStar" transform="rotate(210) translate(0 -24)"/>
        <use href="#euStar" xlink:href="#euStar" transform="rotate(240) translate(0 -24)"/>
        <use href="#euStar" xlink:href="#euStar" transform="rotate(270) translate(0 -24)"/>
        <use href="#euStar" xlink:href="#euStar" transform="rotate(300) translate(0 -24)"/>
        <use href="#euStar" xlink:href="#euStar" transform="rotate(330) translate(0 -24)"/>
      </g>
    </g>

    <path d="M18 55c12-22 40-34 68-29 12 2 22 7 30 15-9-4-19-6-30-6-26 0-48 12-62 30-3 4-5 8-6 12-2-7-2-14 0-22z" fill="url(#gHighlight)" opacity="0.55"/>
  </g>

  <circle cx="64" cy="64" r="54" fill="none" stroke="rgba(0,0,0,0.18)" stroke-width="2"/>
  <circle cx="64" cy="64" r="53" fill="none" stroke="rgba(255,255,255,0.22)" stroke-width="1"/>
</svg>
