<svg xmlns="http://www.w3.org/2000/svg" viewBox="0 0 1024 1024" width="1024" height="1024">
  <rect fill="#1E2026" rx="114.49" height="1024" width="1024"/>
  <g fill="white" transform="translate(278, 356) scale(13)">
    <path d="M35.9331 0.655199C35.8801 0.573599 35.8007 0.5184 35.7093 0.4992L34.8334 0.311997C34.6626 0.311997 34.5278 0.427197 34.5062 0.585597L32.2444 12.4632C32.201 12.6144 31.958 12.5856 31.9701 12.42V12.4152L32.6654 0.338397C32.6654 0.165597 32.5379 0.0263971 32.3743 0.0119971C32.2997 0.00239707 32.2155 0 32.1216 0C31.958 0 31.8257 0.124799 31.8112 0.287999L30.6081 14.2416C30.5985 14.4168 30.3603 14.4072 30.3435 14.2488L29.5831 0.467999C29.5711 0.321599 29.4532 0.211198 29.2607 0.211198C29.2559 0.211198 29.0754 0.24 29.0754 0.24C28.9407 0.2544 28.8372 0.374397 28.8372 0.518397L29.0634 15.2592C29.0586 15.4224 28.8252 15.4416 28.7963 15.2736L26.3492 1.3752C26.3275 1.2192 26.1976 1.1064 26.0412 1.1064C26.0027 1.1064 25.9642 1.1136 25.8848 1.1472C25.7356 1.2072 25.6562 1.344 25.6827 1.4784L27.5499 15.972C27.5619 16.1352 27.3309 16.1808 27.2828 16.0248L23.0816 3.0744C23.0335 2.952 22.9228 2.8752 22.7952 2.8752C22.7327 2.8752 22.6725 2.8944 22.6244 2.9304C22.5378 2.988 22.4921 3.0768 22.5041 3.2544L25.9305 16.2264C25.9642 16.38 25.7525 16.4568 25.673 16.3104L25.6658 16.296L20.2639 5.5128C20.2206 5.4264 20.1364 5.3736 20.0426 5.3736C19.9704 5.3736 19.9006 5.4048 19.8573 5.4552C19.8116 5.4984 19.7875 5.5608 19.7875 5.6256C19.7875 5.64 19.7995 5.712 19.8043 5.724L24.34 16.1016C24.4098 16.2504 24.2005 16.368 24.1018 16.2312L24.0874 16.2096L18.3221 8.1984C18.2764 8.1432 18.2114 8.112 18.1441 8.112C18.1248 8.112 18.0286 8.1504 18.0117 8.16C17.9588 8.196 17.9299 8.2536 17.9299 8.3208C17.9299 8.34 17.954 8.4264 17.966 8.4432L22.3333 15.0792C22.4223 15.2184 22.2346 15.3672 22.1143 15.2472C22.1143 15.2472 8.44712 1.4928 8.4399 1.4928C8.4399 1.4928 8.4399 1.4928 8.4399 1.4952C7.95866 1.0368 7.33065 0.784797 6.67135 0.784797C5.51397 0.784797 4.52984 1.5792 4.27719 2.7168L0.00379356 23.076C-0.015456 23.1696 0.00138737 23.2656 0.0543236 23.3448C0.10726 23.4264 0.186664 23.4816 0.280506 23.5008L1.15636 23.688C1.32479 23.688 1.45954 23.5728 1.4836 23.4144L3.74302 11.5416C3.78392 11.3832 4.03176 11.412 4.02213 11.5824L3.32674 23.664C3.32674 23.8368 3.45427 23.976 3.6203 23.9904C3.68286 24 3.75505 24 3.81761 24C3.82723 24 3.86814 24 3.87295 24C4.03417 24 4.16891 23.8752 4.18335 23.712L5.38644 9.7608C5.39607 9.5808 5.64391 9.5904 5.65594 9.7608L6.41148 23.5344C6.42351 23.6808 6.54142 23.7912 6.73391 23.7912C6.73872 23.7912 6.91919 23.7624 6.91919 23.7624C7.05394 23.748 7.1574 23.628 7.1574 23.484L6.92881 8.748C6.92881 8.5776 7.16703 8.5584 7.19831 8.7264L9.6454 22.6248C9.66706 22.7808 9.797 22.8936 9.9534 22.8936C9.9919 22.8936 10.0304 22.8864 10.1098 22.8528C10.2566 22.7952 10.3384 22.6584 10.3119 22.5216L8.44231 8.0352C8.42306 7.8672 8.66127 7.8168 8.7118 7.9752V7.98L12.913 20.9232C12.9611 21.0456 13.0718 21.1248 13.1993 21.1248C13.2619 21.1248 13.3221 21.1056 13.3702 21.0696C13.4568 21.012 13.5025 20.9232 13.4905 20.7432L10.0641 7.776C10.0232 7.6152 10.2421 7.536 10.3215 7.6848L15.7283 18.4824C15.7716 18.5664 15.8558 18.6192 15.9496 18.6192C16.0218 18.6192 16.0916 18.588 16.1349 18.5376C16.1782 18.4944 16.2047 18.432 16.2047 18.3672C16.2047 18.3528 16.1927 18.2808 16.1878 18.2688L11.6522 7.8912C11.5824 7.7424 11.7917 7.6248 11.8904 7.7616L11.9024 7.7784L17.6701 15.7944C17.7158 15.8496 17.7807 15.8808 17.8481 15.8808C17.8674 15.8808 17.9636 15.8424 17.978 15.8328C18.0334 15.7968 18.0623 15.7392 18.0623 15.6696C18.0623 15.6504 18.0382 15.564 18.0262 15.5472L13.6589 8.9112C13.5699 8.772 13.7576 8.6256 13.8755 8.7408C26.958 21.7824 27.5403 22.4952 27.5523 22.4952C27.5523 22.4952 27.5523 22.4952 27.5523 22.4928C28.0335 22.9512 28.6615 23.2032 29.3208 23.2032C30.4758 23.2032 31.4599 22.4088 31.715 21.2712L35.9884 0.916798C36.0076 0.823198 35.9908 0.727199 35.9379 0.647999L35.9331 0.655199Z"/>
  </g>
</svg>
